<?xml version="1.0" encoding="iso-8859-1"?>
<!-- Generator: Adobe Illustrator 24.2.3, SVG Export Plug-In . SVG Version: 6.00 Build 0)  -->
<svg version="1.1" xmlns="http://www.w3.org/2000/svg" xmlns:xlink="http://www.w3.org/1999/xlink" x="0px" y="0px"
	 viewBox="0 0 499.999 500" style="enable-background:new 0 0 499.999 500;" xml:space="preserve">
<g id="Background_Complete" style="display:none;">
	<g style="display:inline;">
		<g>
			<g>
				
					<rect x="54.581" y="42.801" transform="matrix(0.9344 -0.3561 0.3561 0.9344 -22.946 43.2758)" style="fill:#FAFAFA;" width="102.961" height="82.315"/>
				<g>
					<path style="fill:#E0E0E0;" d="M139.51,27.166c0,0-0.156,0.066-0.457,0.184c-0.306,0.119-0.753,0.292-1.341,0.521
						c-1.186,0.456-2.935,1.129-5.21,2.005c-4.558,1.747-11.221,4.302-19.671,7.541C95.94,43.874,71.915,53.059,43.354,63.978
						l0.09-0.201c8.729,22.89,18.738,49.133,29.328,76.903l0.003,0.008l-0.224-0.1c35.624-13.565,68.73-26.172,96.221-36.64
						l-0.084,0.186c-8.805-23.191-16.103-42.413-21.202-55.843c-2.545-6.723-4.541-11.996-5.903-15.594
						c-0.677-1.798-1.196-3.175-1.549-4.11C139.686,27.656,139.51,27.166,139.51,27.166s0.188,0.463,0.544,1.382
						c0.357,0.926,0.883,2.292,1.57,4.073c1.375,3.585,3.391,8.838,5.961,15.537c5.141,13.438,12.498,32.671,21.375,55.875
						l0.052,0.135l-0.135,0.051c-27.485,10.484-60.584,23.109-96.2,36.695l-0.162,0.062l-0.062-0.163l-0.003-0.008
						C61.87,113.03,51.873,86.782,43.154,63.888l-0.056-0.146l0.145-0.055c28.622-10.874,52.699-20.021,69.626-26.452
						c8.448-3.201,15.11-5.725,19.667-7.451c2.269-0.856,4.012-1.514,5.195-1.96c0.583-0.218,1.027-0.384,1.331-0.498
						C139.361,27.216,139.51,27.166,139.51,27.166z"/>
				</g>
			</g>
		</g>
		
			<rect x="58.135" y="48.095" transform="matrix(0.9344 -0.3561 0.3561 0.9344 -22.9901 43.2608)" style="fill:#F5F5F5;" width="95.728" height="71.951"/>
		<polygon style="fill:#EBEBEB;" points="74.487,134.644 89.803,80.946 119.122,99.716 126.921,80.736 163.939,100.553 		"/>
		<g>
			<g>
				<path style="fill:#EBEBEB;" d="M115.421,65.319c1.483,3.89-0.469,8.245-4.359,9.728s-8.245-0.469-9.728-4.359
					c-1.482-3.89,0.469-8.245,4.359-9.727C109.584,59.478,113.939,61.429,115.421,65.319z"/>
			</g>
		</g>
	</g>
	<g style="display:inline;">
		<g>
			<g>
				
					<rect x="341.89" y="42.979" transform="matrix(0.3699 -0.9291 0.9291 0.3699 162.7399 385.8783)" style="fill:#FAFAFA;" width="47.936" height="59.96"/>
				<g>
					<path style="fill:#E0E0E0;" d="M402.578,61.781c0,0-0.093-0.033-0.269-0.101c-0.178-0.07-0.438-0.171-0.78-0.305
						c-0.689-0.271-1.704-0.672-3.025-1.193c-2.643-1.046-6.507-2.576-11.407-4.516c-9.788-3.885-23.71-9.411-40.26-15.981
						l0.118-0.051c-5.274,13.256-11.322,28.454-17.72,44.535l-0.002,0.005l-0.057-0.132c20.622,8.217,39.787,15.854,55.701,22.196
						l-0.109,0.047c5.36-13.414,9.803-24.533,12.908-32.302c1.557-3.886,2.779-6.934,3.612-9.013
						c0.418-1.038,0.738-1.833,0.955-2.373C402.46,62.061,402.578,61.781,402.578,61.781s-0.102,0.273-0.311,0.807
						c-0.212,0.538-0.524,1.331-0.931,2.365c-0.823,2.079-2.028,5.126-3.565,9.012c-3.09,7.789-7.512,18.935-12.847,32.384
						l-0.031,0.078l-0.078-0.031c-15.917-6.332-35.087-13.958-55.713-22.164l-0.094-0.037l0.037-0.094l0.002-0.005
						c6.406-16.079,12.46-31.274,17.74-44.527l0.034-0.084l0.084,0.034c16.559,6.613,30.488,12.176,40.281,16.087
						c4.884,1.956,8.736,3.498,11.37,4.553c1.31,0.527,2.317,0.931,3,1.206c0.336,0.136,0.592,0.24,0.767,0.311
						C402.494,61.744,402.578,61.781,402.578,61.781z"/>
				</g>
			</g>
		</g>
		
			<rect x="344.837" y="45.109" transform="matrix(0.3699 -0.9291 0.9291 0.3699 162.6732 385.8268)" style="fill:#F5F5F5;" width="41.901" height="55.748"/>
		<polygon style="fill:#EBEBEB;" points="332.348,82.257 360.072,65.262 365.251,84.863 376.073,79.796 384.141,102.879 		"/>
		<g>
			<g>
				<path style="fill:#EBEBEB;" d="M377.215,68.653c-0.897,2.252-3.449,3.351-5.702,2.454c-2.252-0.897-3.351-3.45-2.454-5.702
					c0.897-2.252,3.449-3.351,5.702-2.454C377.013,63.848,378.112,66.401,377.215,68.653z"/>
			</g>
		</g>
	</g>
	<g style="display:inline;">
		<g>
			<g>
				
					<rect x="214.414" y="97.671" transform="matrix(0.2082 -0.9781 0.9781 0.2082 52.2233 387.4279)" style="fill:#FAFAFA;" width="101.991" height="127.573"/>
				<g>
					<path style="fill:#E0E0E0;" d="M338.417,124.863c0,0-0.206-0.036-0.6-0.116c-0.399-0.082-0.981-0.202-1.746-0.36
						c-1.541-0.323-3.813-0.799-6.77-1.418c-5.918-1.248-14.57-3.072-25.541-5.385c-21.92-4.643-53.097-11.246-90.16-19.097
						l0.229-0.148c-6.314,29.69-13.553,63.73-21.214,99.749l-0.002,0.011l-0.166-0.255c46.193,9.848,89.122,19.001,124.769,26.601
						l-0.212,0.138c6.438-30.054,11.774-54.964,15.503-72.37c1.874-8.708,3.344-15.537,4.347-20.197
						c0.504-2.326,0.891-4.109,1.153-5.319C338.269,125.491,338.417,124.863,338.417,124.863s-0.116,0.608-0.364,1.803
						c-0.252,1.204-0.622,2.979-1.106,5.294c-0.98,4.655-2.417,11.478-4.249,20.177c-3.69,17.441-8.972,42.403-15.345,72.518
						l-0.037,0.175l-0.175-0.037c-35.651-7.58-78.586-16.708-124.784-26.529l-0.211-0.045l0.045-0.211l0.002-0.011
						c7.676-36.016,14.93-70.052,21.258-99.74l0.04-0.189l0.189,0.04c37.097,7.939,68.303,14.616,90.242,19.311
						c10.943,2.352,19.574,4.207,25.477,5.476c2.937,0.635,5.193,1.124,6.724,1.455c0.754,0.165,1.327,0.291,1.72,0.378
						C338.228,124.815,338.417,124.863,338.417,124.863z"/>
				</g>
			</g>
		</g>
		
			<rect x="220.753" y="102.135" transform="matrix(0.2082 -0.9781 0.9781 0.2082 52.176 387.3348)" style="fill:#EBEBEB;" width="89.15" height="118.61"/>
		<polygon style="fill:#E0E0E0;" points="198.041,192.689 250.099,147.116 267.98,186.369 288.863,171.866 314.051,217.388 		"/>
		<g>
			<g>
				<path style="fill:#E0E0E0;" d="M287.267,148.088c-1.074,5.045-6.034,8.264-11.079,7.19s-8.264-6.034-7.19-11.079
					c1.074-5.045,6.034-8.264,11.079-7.19C285.123,138.083,288.341,143.043,287.267,148.088z"/>
			</g>
		</g>
	</g>
</g>
<g id="Background_Simple" style="display:none;">
	<path style="display:inline;fill:#F0F0F0;" d="M81.3,327.466c-26.13-49.749,23.088-96.946,111.748-133.058
		c88.66-36.112,62.939-69.475,107.28-107.604C344.667,48.676,484.349,69.01,432.402,228.08
		C380.454,387.149,149.617,457.54,81.3,327.466z"/>
</g>
<g id="Floor" style="display:none;">
	<g style="display:inline;">
		<path style="fill:#263238;" d="M45.674,449.293c3.942,0,402.433,0,402.433,0"/>
		<g>
			<path style="fill:#263238;" d="M448.108,449.293c0,0.144-90.095,0.26-201.207,0.26c-111.151,0-201.226-0.117-201.226-0.26
				c0-0.144,90.076-0.26,201.226-0.26C358.013,449.033,448.108,449.149,448.108,449.293z"/>
		</g>
	</g>
</g>
<g id="Character">
	<g>
		<g>
			<path style="fill:#E8505B;" d="M91.898,167.48l7.259,123.766c0.259,4.409,3.902,7.855,8.318,7.869l222.769,0.679
				c4.616,0.014,8.37-3.717,8.384-8.333l0.294-96.364c0.014-4.637-3.749-8.399-8.387-8.384l-137.003,0.465
				c-2.214,0.007-4.34-0.863-5.912-2.421l-23.739-23.527c-1.559-1.545-3.663-2.415-5.858-2.421l-57.756-0.176
				C95.449,158.617,91.616,162.669,91.898,167.48z"/>
		</g>
		<g style="opacity:0.5;">
			<path d="M91.898,167.48l7.259,123.766c0.259,4.409,3.902,7.855,8.318,7.869l222.769,0.679c4.616,0.014,8.37-3.717,8.384-8.333
				l0.294-96.364c0.014-4.637-3.749-8.399-8.387-8.384l-137.003,0.465c-2.214,0.007-4.34-0.863-5.912-2.421l-23.739-23.527
				c-1.559-1.545-3.663-2.415-5.858-2.421l-57.756-0.176C95.449,158.617,91.616,162.669,91.898,167.48z"/>
		</g>
		<g>
			<g>
				<g>
					<g>
						
							<rect x="85.208" y="196.827" transform="matrix(0.9944 -0.1053 0.1053 0.9944 -25.7414 17.7287)" style="fill:#FAFAFA;" width="139.64" height="111.638"/>
						<g>
							<path style="fill:#263238;" d="M218.582,189.785c0,0-0.228,0.033-0.664,0.084c-0.445,0.05-1.091,0.123-1.94,0.219
								c-1.715,0.188-4.242,0.465-7.529,0.825c-6.584,0.712-16.207,1.752-28.408,3.07c-24.386,2.611-59.067,6.324-100.297,10.737
								l0.207-0.256c3.507,33.04,7.527,70.92,11.781,111.002l0.001,0.012l-0.286-0.232c51.412-5.428,99.192-10.471,138.868-14.66
								l-0.192,0.238c-3.496-33.457-6.393-61.188-8.418-80.567c-1.003-9.698-1.789-17.304-2.326-22.496
								c-0.264-2.591-0.466-4.578-0.603-5.928C218.641,190.491,218.582,189.785,218.582,189.785s0.087,0.671,0.236,1.998
								c0.148,1.34,0.365,3.311,0.648,5.882c0.561,5.178,1.383,12.764,2.432,22.436c2.082,19.405,5.061,47.175,8.656,80.678
								l0.023,0.215l-0.216,0.023c-39.673,4.214-87.45,9.288-138.858,14.747l-0.259,0.027l-0.027-0.259l-0.001-0.012
								c-4.235-40.085-8.236-77.966-11.727-111.008l-0.024-0.232l0.232-0.024c41.302-4.325,76.044-7.963,100.472-10.521
								c12.184-1.263,21.794-2.26,28.369-2.942c3.27-0.334,5.782-0.591,7.489-0.765c0.839-0.083,1.478-0.146,1.917-0.189
								C218.37,189.799,218.582,189.785,218.582,189.785z"/>
						</g>
					</g>
				</g>
				<g>
					
						<rect x="90.023" y="203.864" transform="matrix(0.9944 -0.1053 0.1053 0.9944 -25.7427 17.7191)" style="fill:#E8505B;" width="129.829" height="97.582"/>
					
						<rect x="90.023" y="203.864" transform="matrix(0.9944 -0.1053 0.1053 0.9944 -25.7427 17.7191)" style="opacity:0.7;fill:#FAFAFA;" width="129.829" height="97.582"/>
				</g>
				<polygon style="fill:#E8505B;" points="95.521,308.011 134.228,242.917 166.157,277.697 182.967,255.517 224.628,294.34 				"/>
				<g>
					<g>
						
							<ellipse transform="matrix(0.9963 -0.0857 0.0857 0.9963 -19.3134 14.828)" style="fill:#E8505B;" cx="163.071" cy="232.391" rx="10.223" ry="10.222"/>
					</g>
				</g>
			</g>
			<g>
				<g>
					<g>
						
							<rect x="54.272" y="282.768" transform="matrix(0.0411 -0.9992 0.9992 0.0411 -241.4125 407.9481)" style="fill:#FAFAFA;" width="75.118" height="93.959"/>
						<g>
							<path style="fill:#263238;" d="M140.315,294.152c0,0-0.158,0.003-0.455-0.005c-0.309-0.01-0.746-0.023-1.317-0.041
								c-1.17-0.042-2.879-0.103-5.1-0.182c-4.462-0.169-10.971-0.416-19.221-0.729c-16.491-0.65-39.93-1.574-67.795-2.672
								l0.242-0.223c-0.911,22.339-1.955,47.948-3.06,75.047l0,0.008l-0.249-0.271c34.755,1.446,67.053,2.79,93.877,3.906
								l-0.225,0.207c0.976-22.6,1.786-41.333,2.352-54.433c0.294-6.552,0.524-11.692,0.682-15.21
								c0.083-1.748,0.146-3.09,0.19-4.012C140.279,294.632,140.315,294.152,140.315,294.152s-0.003,0.45-0.032,1.346
								c-0.032,0.912-0.078,2.242-0.139,3.973c-0.131,3.508-0.323,8.633-0.568,15.166c-0.513,13.135-1.247,31.918-2.133,54.578
								l-0.008,0.216l-0.217-0.009c-26.825-1.091-59.125-2.405-93.881-3.818l-0.26-0.011l0.011-0.26l0-0.008
								c1.125-27.098,2.187-52.706,3.114-75.045l0.01-0.233l0.233,0.01c27.923,1.197,51.411,2.203,67.936,2.911
								c8.226,0.365,14.714,0.653,19.163,0.85c2.201,0.103,3.893,0.182,5.052,0.236c0.56,0.029,0.988,0.051,1.29,0.067
								C140.175,294.137,140.315,294.152,140.315,294.152z"/>
						</g>
					</g>
				</g>
				<g>
					
						<rect x="58.94" y="286.066" transform="matrix(0.0411 -0.9992 0.9992 0.0411 -241.4688 407.8845)" style="fill:#E8505B;" width="65.66" height="87.358"/>
					
						<rect x="58.94" y="286.066" transform="matrix(0.0411 -0.9992 0.9992 0.0411 -241.4688 407.8845)" style="opacity:0.7;fill:#FAFAFA;" width="65.66" height="87.358"/>
				</g>
				<polygon style="fill:#E8505B;" points="46.779,360.752 78.942,321.227 96.777,347.517 110.147,334.405 134.063,364.343 				"/>
				<g>
					<g>
						<path style="fill:#E8505B;" d="M106.049,317.339c-0.156,3.796-3.36,6.746-7.155,6.59c-3.796-0.156-6.746-3.36-6.59-7.155
							c0.156-3.796,3.359-6.746,7.155-6.59S106.205,313.543,106.049,317.339z"/>
					</g>
				</g>
			</g>
			<g>
				<g>
					<g>
						
							<rect x="187.868" y="168.987" transform="matrix(0.9998 -0.0215 0.0215 0.9998 -4.7712 5.5892)" style="fill:#FAFAFA;" width="139.639" height="111.638"/>
						<g>
							<path style="fill:#263238;" d="M326.292,167.499c0,0-0.23,0.014-0.669,0.028c-0.447,0.013-1.098,0.031-1.952,0.055
								c-1.725,0.043-4.266,0.107-7.571,0.19c-6.62,0.157-16.297,0.386-28.566,0.676c-24.519,0.555-59.39,1.345-100.845,2.284
								l0.228-0.238c0.722,33.218,1.55,71.301,2.426,111.599l0,0.012l-0.266-0.255c51.686-1.095,99.721-2.112,139.608-2.957
								l-0.212,0.221c-0.676-33.632-1.237-61.509-1.629-80.989c-0.185-9.748-0.331-17.393-0.43-22.612
								c-0.045-2.604-0.08-4.601-0.103-5.958C326.291,168.207,326.292,167.499,326.292,167.499s0.03,0.676,0.067,2.011
								c0.035,1.347,0.086,3.33,0.152,5.916c0.125,5.207,0.308,12.835,0.541,22.561c0.446,19.512,1.085,47.434,1.856,81.12
								l0.005,0.216l-0.217,0.005c-39.887,0.87-87.92,1.917-139.606,3.044l-0.26,0.006l-0.006-0.261l0-0.012
								c-0.856-40.299-1.665-78.383-2.371-111.601l-0.005-0.233l0.233-0.005c41.519-0.844,76.444-1.555,101.001-2.054
								c12.247-0.237,21.907-0.423,28.516-0.551c3.286-0.059,5.811-0.104,7.527-0.134c0.843-0.012,1.485-0.021,1.926-0.028
								C326.079,167.495,326.292,167.499,326.292,167.499z"/>
						</g>
					</g>
				</g>
				<g>
					
						<rect x="192.682" y="176.016" transform="matrix(0.9998 -0.0215 0.0215 0.9998 -4.7711 5.587)" style="fill:#E8505B;" width="129.829" height="97.582"/>
					
						<rect x="192.682" y="176.016" transform="matrix(0.9998 -0.0215 0.0215 0.9998 -4.7711 5.587)" style="opacity:0.7;fill:#FAFAFA;" width="129.829" height="97.582"/>
				</g>
				<polygon style="fill:#E8505B;" points="193.745,274.982 237.777,213.366 266.676,250.702 285.287,230.011 323.544,272.193 				
					"/>
				<g>
					<g>
						<path style="fill:#E8505B;" d="M277.622,205.077c0.121,5.645-4.356,10.318-10.001,10.44c-5.644,0.121-10.318-4.356-10.44-10
							c-0.121-5.645,4.356-10.318,10-10.44C272.827,194.956,277.5,199.433,277.622,205.077z"/>
					</g>
				</g>
			</g>
		</g>
		<g>
			<g>
				<path style="fill:#EB996E;" d="M398.63,204.69l-13.607-17.123c0,0-22.082,17.141-24.577,15.824
					c-13.823-7.295-24.971-20.701-28.754-25.596c-0.134-0.881-0.266-1.92-0.365-3.151c-0.083-1.056,0.022-2.119,0.297-3.143
					c0.332-1.24,0.842-2.871,1.398-3.678c0.688-0.997-0.195-2.313-1.235-1.951c-1.04,0.363-3.002,3.066-3.671,6.911
					c-0.668,3.845-3.671-1.512-4.8-3.445c-1.129-1.933-4.904-7.749-5.773-7.872c-1.275-0.181-1.704,1.151-0.53,3.055
					c1.187,1.927,4.287,7.861,3.237,8.408c-1.033,0.54-6.649-9.378-6.649-9.378s-0.857-2.314-2.09-1.722
					c-2.225,1.068,4.52,11.172,5.186,12.117c0.462,0.657-0.657,1.292-1.116,0.56c-0.473-0.754-5.37-10.023-7.647-8.957
					c-1.746,0.818,5.471,8.363,5.419,10.849c-0.052,2.488-4.892-6.278-6.528-5.428c-0.609,0.317-1.02,0.636,2.486,5.269
					c1.701,2.248,5.251,5.962,8.515,9.247l-0.047,0.036c0,0,32.454,50.225,55.153,36.916
					C397.019,208.316,398.63,204.69,398.63,204.69z"/>
			</g>
		</g>
		<g>
			<g>
				<g>
					<path style="fill:#FFBE9D;" d="M458.594,437.506c0,0-27.244-92.883-27.76-95.853c-0.467-2.684,8.613-67.746,10.512-84.63
						l-34.839,0.243c0,0-0.004,0.103-0.012,0.282l-14.262,0.351l6.392,184.739l18.449,1.422l-0.123-60.951
						c11.638,29.391,25.123,62.166,25.123,62.166L458.594,437.506z"/>
					<path style="fill:#FFBE9D;" d="M442.101,257.036C442.104,257.007,442.104,257.004,442.101,257.036L442.101,257.036z"/>
					<path style="fill:#FFBE9D;" d="M443.125,257.18C443.128,257.161,443.116,257.184,443.125,257.18
						C440.947,258.117,443.128,257.161,443.125,257.18z"/>
				</g>
				<g>
					<g>
						<path style="fill:#EB996E;" d="M404.786,337.396c0.057,0.009-0.056,0.724-0.124,2.025c-0.076,1.299-0.106,3.185,0.082,5.504
							c0.192,2.316,0.599,5.065,1.345,8.046c0.702,2.994,1.991,6.123,3.253,9.465c2.529,6.669,4.788,12.718,6.394,17.106
							c0.766,2.13,1.399,3.887,1.874,5.208c0.43,1.234,0.65,1.924,0.611,1.938c-0.038,0.015-0.331-0.647-0.828-1.856
							c-0.52-1.304-1.212-3.039-2.051-5.141c-1.707-4.35-4.028-10.375-6.557-17.045c-0.628-1.669-1.241-3.298-1.833-4.874
							c-0.576-1.593-1.029-3.162-1.396-4.671c-0.725-3.021-1.093-5.804-1.232-8.147c-0.136-2.345-0.041-4.25,0.106-5.553
							c0.067-0.653,0.153-1.155,0.224-1.494C404.721,337.568,404.766,337.392,404.786,337.396z"/>
					</g>
				</g>
				<g>
					<path style="fill:#EB996E;" d="M416.996,405.235c0.033-0.564,0.421-20.669,0.421-20.669s-6.688-18.66-6.861-18.093
						C410.383,367.04,416.996,405.235,416.996,405.235z"/>
				</g>
			</g>
			<g>
				<g>
					<g>
						<g>
							<g>
								<path style="fill:#E8505B;" d="M441.942,445.532l-0.895-1.876l17.624-8.504l3.017,6.151l-1.053,0.597
									c-4.706,2.615-24.111,12.965-27.819,13.553C428.679,456.11,441.942,445.532,441.942,445.532z"/>
							</g>
						</g>
						<g>
							<g>
								<path style="fill:#E0E0E0;" d="M455.266,444.249c-0.461-1.585-0.307-3.341,0.423-4.822c0.73-1.481,1.94-2.662,3.478-3.262
									l2.38,4.896L455.266,444.249z"/>
							</g>
						</g>
					</g>
					<g>
						<g>
							<path style="fill:#E0E0E0;" d="M435.588,450.96c0,0-4.488,4.038-3.42,4.582c1.068,0.544,21.071-9.178,29.52-14.238
								l-0.218-0.378l-23.236,11.538C438.233,452.464,436.629,450.507,435.588,450.96z"/>
						</g>
					</g>
					<g>
						<g>
							<g>
								<path style="fill:#263238;" d="M461.739,440.781c0.004,0.007-0.095,0.069-0.285,0.179c-0.252,0.142-0.528,0.297-0.84,0.473
									c-0.847,0.458-1.889,1.021-3.118,1.685c-2.642,1.404-6.319,3.295-10.424,5.294c-4.107,1.999-7.863,3.727-10.598,4.941
									c-1.281,0.558-2.366,1.031-3.249,1.415c-0.33,0.137-0.623,0.259-0.89,0.369c-0.204,0.082-0.313,0.122-0.317,0.114
									c-0.003-0.008,0.099-0.062,0.297-0.158c0.262-0.123,0.548-0.258,0.872-0.41c0.874-0.403,1.949-0.898,3.217-1.483
									c2.716-1.253,6.459-3.004,10.563-5.002c4.102-1.998,7.789-3.865,10.45-5.23c1.242-0.638,2.295-1.178,3.152-1.618
									c0.319-0.161,0.602-0.303,0.861-0.433C461.629,440.822,461.735,440.774,461.739,440.781z"/>
							</g>
						</g>
					</g>
					<g>
						<g>
							<g>
								<path style="fill:#263238;" d="M438.37,452.733c-0.061,0.04-0.48-0.697-1.333-1.231c-0.844-0.549-1.688-0.62-1.678-0.691
									c-0.013-0.059,0.898-0.094,1.805,0.492C438.077,451.879,438.429,452.721,438.37,452.733z"/>
							</g>
						</g>
					</g>
					<g>
						<g>
							<g>
								<path style="fill:#263238;" d="M442.265,447.599c-0.034,0.055-0.428-0.125-0.879-0.404
									c-0.451-0.278-0.789-0.549-0.755-0.605c0.034-0.056,0.428,0.125,0.879,0.404
									C441.961,447.272,442.299,447.543,442.265,447.599z"/>
							</g>
						</g>
					</g>
					<g>
						<g>
							<g>
								<path style="fill:#263238;" d="M443.319,446.159c-0.018,0.063-0.384,0.013-0.818-0.112
									c-0.434-0.124-0.771-0.276-0.753-0.339c0.018-0.063,0.384-0.013,0.818,0.112C443,445.945,443.337,446.096,443.319,446.159z"
									/>
							</g>
						</g>
					</g>
					<g>
						<g>
							<g>
								<path style="fill:#263238;" d="M443.412,444.07c0.029,0.059-0.355,0.309-0.857,0.561c-0.503,0.251-0.934,0.408-0.963,0.349
									c-0.029-0.058,0.355-0.309,0.858-0.561C442.952,444.168,443.383,444.011,443.412,444.07z"/>
							</g>
						</g>
					</g>
					<g>
						<g>
							<g>
								<path style="fill:#263238;" d="M443.153,442.754c0.045,0.043-0.303,0.461-0.876,0.792c-0.571,0.335-1.107,0.432-1.121,0.371
									c-0.02-0.065,0.46-0.257,1.003-0.575C442.703,443.028,443.106,442.704,443.153,442.754z"/>
							</g>
						</g>
					</g>
					<g>
						<g>
							<g>
								<path style="fill:#263238;" d="M440.928,446.359c0.013,0.023-0.393,0.286-1.129,0.54c-0.367,0.127-0.817,0.244-1.327,0.318
									c-0.257,0.028-0.515,0.082-0.823,0.051c-0.148-0.02-0.322-0.065-0.449-0.214c-0.129-0.146-0.13-0.38-0.048-0.533
									c0.805-1.081,2.177-0.999,2.847-0.637c0.358,0.177,0.593,0.405,0.732,0.573c0.139,0.171,0.189,0.282,0.177,0.29
									c-0.033,0.034-0.292-0.406-0.98-0.711c-0.339-0.149-0.785-0.237-1.265-0.157c-0.455,0.075-1.036,0.319-1.298,0.743
									c-0.114,0.219,0.057,0.396,0.314,0.417c0.243,0.03,0.518-0.014,0.764-0.037c0.497-0.06,0.94-0.158,1.306-0.262
									C440.481,446.532,440.911,446.324,440.928,446.359z"/>
							</g>
						</g>
					</g>
					<g>
						<g>
							<g>
								<path style="fill:#263238;" d="M440.663,446.557c-0.01,0.02-0.316-0.187-0.51-0.719c-0.093-0.262-0.145-0.601-0.092-0.972
									c0.077-0.346,0.166-0.815,0.658-1.029c0.277-0.093,0.549,0.142,0.6,0.351c0.075,0.207,0.069,0.419,0.053,0.596
									c-0.031,0.362-0.109,0.682-0.201,0.94c-0.186,0.516-0.4,0.784-0.423,0.769c-0.033-0.018,0.126-0.311,0.263-0.818
									c0.068-0.253,0.126-0.561,0.143-0.905c0.039-0.313-0.063-0.792-0.37-0.706c-0.295,0.11-0.447,0.53-0.509,0.838
									c-0.059,0.33-0.029,0.64,0.037,0.887C440.45,446.289,440.697,446.53,440.663,446.557z"/>
							</g>
						</g>
					</g>
					<g>
						<g>
							<g>
								<path style="fill:#263238;" d="M459.052,436.161c0.015,0.041-0.525,0.196-1.272,0.674c-0.742,0.468-1.677,1.32-2.258,2.536
									c-0.58,1.217-0.655,2.48-0.553,3.351c0.098,0.881,0.317,1.398,0.275,1.413c-0.013,0.005-0.081-0.117-0.172-0.353
									c-0.092-0.235-0.197-0.589-0.268-1.038c-0.148-0.889-0.1-2.205,0.505-3.475c0.607-1.268,1.6-2.133,2.384-2.577
									c0.394-0.227,0.734-0.367,0.976-0.444C458.91,436.172,459.047,436.147,459.052,436.161z"/>
							</g>
						</g>
					</g>
					<g>
						<g>
							<g>
								<path style="fill:#263238;" d="M452.231,443.612c0.034,0.051-1.016,0.794-2.434,1.497c-1.416,0.708-2.642,1.098-2.662,1.04
									c-0.024-0.064,1.154-0.55,2.557-1.251C451.097,444.201,452.195,443.554,452.231,443.612z"/>
							</g>
						</g>
					</g>
					<g>
						<g>
							<g>
								<path style="fill:#263238;" d="M455.663,441.939c0.064,0.022,0.024,0.288,0.035,0.607c0.006,0.32,0.06,0.583-0.002,0.609
									c-0.057,0.027-0.225-0.233-0.234-0.602C455.451,442.183,455.604,441.915,455.663,441.939z"/>
							</g>
						</g>
					</g>
					<g>
						<g>
							<g>
								<path style="fill:#263238;" d="M456.174,439.699c0.062,0.021,0.037,0.258-0.055,0.53c-0.092,0.272-0.216,0.475-0.278,0.454
									c-0.062-0.021-0.037-0.258,0.055-0.53C455.988,439.882,456.112,439.678,456.174,439.699z"/>
							</g>
						</g>
					</g>
					<g>
						<g>
							<g>
								<path style="fill:#263238;" d="M457.668,438.064c0.017,0.065-0.217,0.176-0.43,0.392c-0.218,0.211-0.332,0.443-0.397,0.425
									c-0.063-0.009-0.036-0.33,0.232-0.593C457.338,438.023,457.66,438.001,457.668,438.064z"/>
							</g>
						</g>
					</g>
					<g>
						<g>
							<g>
								<path style="fill:#263238;" d="M458.818,437.076c0.048,0.044-0.009,0.183-0.127,0.31c-0.118,0.127-0.252,0.194-0.3,0.15
									s0.009-0.183,0.127-0.31S458.77,437.031,458.818,437.076z"/>
							</g>
						</g>
					</g>
				</g>
			</g>
			<g>
				<g>
					<g>
						<g>
							<g>
								<path style="fill:#E8505B;" d="M398.143,443.637l-0.052-2.078l19.56-0.567l0.242,6.846l-1.205,0.115
									c-5.363,0.466-27.303,1.991-30.928,1.015C381.717,447.878,398.143,443.637,398.143,443.637z"/>
							</g>
						</g>
						<g>
							<g>
								<path style="fill:#E0E0E0;" d="M410.83,447.906c0.226-1.635,1.084-3.175,2.355-4.229c1.271-1.054,2.858-1.638,4.507-1.557
									l0.174,5.441L410.83,447.906z"/>
							</g>
						</g>
					</g>
					<g>
						<g>
							<path style="fill:#E0E0E0;" d="M390.126,445.998c0,0-5.746,1.854-4.993,2.786c0.753,0.932,22.982,0.225,32.76-0.945
								l-0.045-0.434l-25.922,1.046C391.927,448.45,391.261,446.009,390.126,445.998z"/>
						</g>
					</g>
					<g>
						<g>
							<g>
								<path style="fill:#263238;" d="M418.154,447.383c0.001,0.008-0.114,0.024-0.333,0.047c-0.288,0.027-0.604,0.056-0.96,0.089
									c-0.96,0.072-2.141,0.161-3.534,0.265c-2.985,0.203-7.113,0.428-11.677,0.577c-4.565,0.148-8.699,0.192-11.691,0.184
									c-1.397-0.014-2.581-0.025-3.543-0.035c-0.357-0.01-0.674-0.018-0.963-0.026c-0.22-0.008-0.336-0.017-0.336-0.025
									c0-0.008,0.116-0.016,0.336-0.022c0.289-0.006,0.606-0.012,0.963-0.018c0.962-0.011,2.146-0.025,3.542-0.041
									c2.991-0.035,7.122-0.105,11.685-0.253c4.561-0.149,8.688-0.348,11.674-0.508c1.395-0.075,2.576-0.139,3.537-0.19
									c0.357-0.016,0.674-0.031,0.962-0.044C418.038,447.375,418.154,447.375,418.154,447.383z"/>
							</g>
						</g>
					</g>
					<g>
						<g>
							<g>
								<path style="fill:#263238;" d="M391.942,448.753c-0.072,0.011-0.154-0.832-0.715-1.668
									c-0.546-0.846-1.288-1.255-1.249-1.316c0.012-0.059,0.858,0.281,1.447,1.187
									C392.023,447.853,392.001,448.765,391.942,448.753z"/>
							</g>
						</g>
					</g>
					<g>
						<g>
							<g>
								<path style="fill:#263238;" d="M397.594,445.655c-0.054,0.037-0.339-0.289-0.638-0.727c-0.298-0.438-0.496-0.823-0.442-0.86
									c0.054-0.037,0.339,0.289,0.638,0.727C397.45,445.233,397.648,445.619,397.594,445.655z"/>
							</g>
						</g>
					</g>
					<g>
						<g>
							<g>
								<path style="fill:#263238;" d="M399.144,444.772c-0.042,0.05-0.356-0.145-0.701-0.436c-0.345-0.291-0.591-0.567-0.549-0.617
									c0.042-0.05,0.356,0.145,0.701,0.436S399.186,444.722,399.144,444.772z"/>
							</g>
						</g>
					</g>
					<g>
						<g>
							<g>
								<path style="fill:#263238;" d="M400.082,442.902c0.003,0.065-0.45,0.138-1.012,0.162c-0.562,0.024-1.019-0.009-1.022-0.074
									s0.45-0.137,1.012-0.162C399.622,442.804,400.079,442.837,400.082,442.902z"/>
							</g>
						</g>
					</g>
					<g>
						<g>
							<g>
								<path style="fill:#263238;" d="M400.383,441.596c0.024,0.057-0.465,0.297-1.123,0.366c-0.658,0.073-1.186-0.058-1.175-0.119
									c0.009-0.068,0.525-0.046,1.15-0.116C399.86,441.662,400.36,441.531,400.383,441.596z"/>
							</g>
						</g>
					</g>
					<g>
						<g>
							<g>
								<path style="fill:#263238;" d="M396.879,443.978c0.002,0.026-0.476,0.1-1.251,0.032c-0.387-0.034-0.845-0.111-1.341-0.251
									c-0.247-0.079-0.504-0.136-0.772-0.29c-0.126-0.079-0.268-0.19-0.322-0.379c-0.058-0.186,0.036-0.4,0.174-0.506
									c1.176-0.658,2.395-0.023,2.859,0.581c0.255,0.308,0.376,0.612,0.435,0.822c0.057,0.212,0.057,0.335,0.043,0.337
									c-0.044,0.018-0.1-0.49-0.604-1.049c-0.248-0.274-0.62-0.537-1.091-0.66c-0.446-0.117-1.076-0.132-1.488,0.149
									c-0.194,0.153-0.109,0.385,0.116,0.509c0.21,0.126,0.479,0.199,0.713,0.278c0.479,0.148,0.923,0.24,1.299,0.294
									C396.401,443.953,396.879,443.939,396.879,443.978z"/>
							</g>
						</g>
					</g>
					<g>
						<g>
							<g>
								<path style="fill:#263238;" d="M396.557,444.05c-0.017,0.014-0.212-0.299-0.172-0.864c0.021-0.277,0.113-0.608,0.312-0.925
									c0.212-0.284,0.484-0.676,1.021-0.671c0.291,0.028,0.443,0.354,0.404,0.566c-0.016,0.22-0.108,0.411-0.195,0.566
									c-0.176,0.318-0.378,0.578-0.567,0.776c-0.38,0.396-0.685,0.552-0.7,0.529c-0.023-0.03,0.242-0.232,0.574-0.639
									c0.165-0.204,0.344-0.461,0.5-0.768c0.163-0.27,0.266-0.748-0.05-0.795c-0.314-0.02-0.624,0.302-0.807,0.557
									c-0.188,0.277-0.288,0.572-0.328,0.825C396.472,443.719,396.599,444.04,396.557,444.05z"/>
							</g>
						</g>
					</g>
					<g>
						<g>
							<g>
								<path style="fill:#263238;" d="M417.587,442.068c-0.003,0.044-0.559-0.035-1.436,0.096c-0.868,0.125-2.07,0.521-3.097,1.393
									c-1.027,0.874-1.611,1.996-1.873,2.834c-0.271,0.844-0.282,1.406-0.326,1.402c-0.014-0.001-0.026-0.14-0.013-0.393
									c0.012-0.253,0.061-0.618,0.179-1.057c0.228-0.872,0.809-2.054,1.88-2.966c1.072-0.91,2.331-1.294,3.229-1.379
									c0.452-0.046,0.82-0.035,1.072-0.007C417.453,442.02,417.589,442.054,417.587,442.068z"/>
							</g>
						</g>
					</g>
					<g>
						<g>
							<g>
								<path style="fill:#263238;" d="M408.319,446.086c0.01,0.061-1.252,0.309-2.833,0.372c-1.582,0.068-2.86-0.076-2.855-0.138
									c0.004-0.068,1.278-0.031,2.845-0.098C407.043,446.16,408.31,446.018,408.319,446.086z"/>
							</g>
						</g>
					</g>
					<g>
						<g>
							<g>
								<path style="fill:#263238;" d="M412.135,445.958c0.049,0.046-0.095,0.273-0.216,0.569c-0.125,0.294-0.183,0.557-0.251,0.555
									c-0.063,0.002-0.11-0.305,0.032-0.645C411.841,446.095,412.091,445.913,412.135,445.958z"/>
							</g>
						</g>
					</g>
					<g>
						<g>
							<g>
								<path style="fill:#263238;" d="M413.516,444.123c0.048,0.044-0.071,0.251-0.266,0.461c-0.195,0.211-0.392,0.346-0.44,0.301
									c-0.048-0.044,0.071-0.251,0.266-0.462C413.271,444.214,413.468,444.079,413.516,444.123z"/>
							</g>
						</g>
					</g>
					<g>
						<g>
							<g>
								<path style="fill:#263238;" d="M415.548,443.24c-0.012,0.067-0.27,0.072-0.553,0.182c-0.285,0.103-0.484,0.269-0.536,0.226
									c-0.053-0.034,0.102-0.316,0.454-0.447C415.263,443.068,415.566,443.179,415.548,443.24z"/>
							</g>
						</g>
					</g>
					<g>
						<g>
							<g>
								<path style="fill:#263238;" d="M417,442.807c0.026,0.06-0.083,0.164-0.243,0.231c-0.16,0.068-0.31,0.074-0.335,0.014
									c-0.025-0.06,0.083-0.164,0.243-0.231C416.825,442.754,416.975,442.747,417,442.807z"/>
							</g>
						</g>
					</g>
				</g>
			</g>
			<g>
				<g>
					<path style="fill:#263238;" d="M437.187,245.683l0.009-0.002c-8.208-14.192-10.283-12.533-7.502-20.799l8.012-26.878
						l-3.37-16.871c-4.13-3.98-9.325-5.505-14.206-5.195l-16.737,1.151c0,0-8.237-1.805-20.368,9.982l-8.404,7.842l10.583,20.082
						l0.528,9.104l4.732,33.337l0,0c-0.885,8.361-11.261,106.779-9.737,108.294c1.592,1.582,25.022-10.147,30.697-5.355
						c5.675,4.792,17.099,7.729,23.543,5.667c6.444-2.063,17.022-14.794,24.345-7.432
						C459.312,358.608,463.828,277.828,437.187,245.683z"/>
					<g>
						<path style="fill:#455A64;" d="M411.34,291.547c0.018,0.001,0.024,0.217,0.019,0.629c-0.013,0.466-0.029,1.062-0.048,1.797
							c-0.059,1.626-0.141,3.866-0.241,6.604c-0.204,5.576-0.446,13.28-0.578,21.791c-0.129,8.514-0.122,16.223-0.088,21.802
							c0.016,2.74,0.03,4.981,0.039,6.608c-0.003,0.736-0.005,1.331-0.007,1.797c-0.007,0.411-0.02,0.627-0.038,0.628
							c-0.018,0.001-0.041-0.215-0.067-0.625c-0.024-0.466-0.054-1.061-0.091-1.795c-0.07-1.56-0.141-3.817-0.205-6.608
							c-0.128-5.581-0.193-13.295-0.065-21.815c0.132-8.517,0.432-16.225,0.731-21.799c0.149-2.787,0.289-5.042,0.406-6.599
							c0.06-0.733,0.108-1.327,0.146-1.792C411.293,291.761,411.322,291.546,411.34,291.547z"/>
					</g>
					<g>
						<path style="fill:#455A64;" d="M447.217,352.482c-0.017,0.006-0.092-0.158-0.219-0.477c-0.143-0.376-0.319-0.839-0.533-1.401
							c-0.456-1.219-1.074-2.998-1.8-5.21c-1.455-4.421-3.276-10.595-4.909-17.51c-1.628-6.918-2.756-13.256-3.429-17.862
							c-0.338-2.303-0.58-4.17-0.716-5.465c-0.06-0.599-0.109-1.091-0.149-1.491c-0.028-0.341-0.035-0.522-0.017-0.524
							c0.018-0.002,0.059,0.174,0.121,0.511c0.066,0.396,0.147,0.884,0.246,1.478c0.22,1.359,0.517,3.197,0.879,5.434
							c0.765,4.584,1.948,10.896,3.573,17.8c1.63,6.899,3.391,13.075,4.753,17.518c0.676,2.163,1.231,3.94,1.641,5.255
							c0.177,0.575,0.322,1.048,0.44,1.432C447.192,352.3,447.234,352.476,447.217,352.482z"/>
					</g>
					<path style="fill:#FAFAFA;" d="M428.282,245.738c-0.959-0.006-2.03,0.874-1.983,2.037c0.046,1.163,0.953,2.159,2.111,2.043
						c1.158-0.115,2.079-1.352,1.838-2.49s-1.523-1.887-2.609-1.469"/>
					<path style="fill:#FAFAFA;" d="M392.296,278.863c-0.959-0.006-2.03,0.874-1.983,2.037s0.953,2.159,2.111,2.043
						c1.158-0.115,2.079-1.352,1.838-2.49c-0.241-1.139-1.523-1.887-2.609-1.469"/>
					<path style="fill:#FAFAFA;" d="M421.629,296.015c-0.959-0.006-2.03,0.874-1.983,2.037c0.046,1.163,0.953,2.159,2.111,2.043
						c1.158-0.115,2.079-1.352,1.838-2.49c-0.241-1.139-1.523-1.887-2.609-1.469"/>
					<path style="fill:#FAFAFA;" d="M449.101,315.213c-0.959-0.006-2.03,0.874-1.983,2.037c0.046,1.163,0.953,2.159,2.111,2.043
						c1.158-0.115,2.079-1.352,1.838-2.49c-0.241-1.139-1.523-1.888-2.609-1.469"/>
					<path style="fill:#FAFAFA;" d="M423.885,336.373c-0.959-0.006-2.029,0.874-1.983,2.037c0.046,1.163,0.953,2.159,2.111,2.043
						c1.158-0.115,2.079-1.352,1.838-2.49c-0.241-1.139-1.523-1.888-2.609-1.469"/>
					<path style="fill:#FAFAFA;" d="M391.422,343.567c-0.959-0.006-2.03,0.874-1.983,2.037c0.046,1.163,0.953,2.159,2.111,2.043
						c1.158-0.115,2.079-1.352,1.838-2.49c-0.241-1.139-1.523-1.888-2.609-1.469"/>
					<path style="fill:#FAFAFA;" d="M402.577,310.982c-0.959-0.006-2.03,0.874-1.983,2.037c0.046,1.163,0.953,2.159,2.111,2.043
						c1.158-0.115,2.079-1.352,1.838-2.49c-0.241-1.139-1.523-1.888-2.609-1.469"/>
					<path style="fill:#FAFAFA;" d="M403.958,260.187c-0.959-0.006-2.03,0.874-1.983,2.037c0.046,1.163,0.953,2.159,2.111,2.043
						c1.158-0.115,2.079-1.352,1.838-2.49c-0.241-1.139-1.523-1.887-2.609-1.469"/>
					<path style="fill:#FAFAFA;" d="M427.67,269.772c-0.959-0.006-2.03,0.874-1.983,2.037c0.046,1.163,0.953,2.159,2.111,2.043
						c1.158-0.115,2.079-1.352,1.838-2.49c-0.241-1.139-1.523-1.887-2.609-1.469"/>
					<path style="fill:#FAFAFA;" d="M446.037,280.117c-0.959-0.006-2.03,0.874-1.983,2.037c0.046,1.163,0.953,2.159,2.111,2.043
						c1.158-0.115,2.079-1.352,1.838-2.49c-0.241-1.139-1.523-1.887-2.609-1.469"/>
					<path style="fill:#FAFAFA;" d="M419.735,260.434c-0.197-0.001-0.417,0.18-0.408,0.419c0.01,0.239,0.196,0.444,0.434,0.42
						c0.238-0.024,0.428-0.278,0.378-0.512c-0.05-0.234-0.313-0.388-0.537-0.302"/>
					<path style="fill:#FAFAFA;" d="M409.085,278.588c-0.197-0.001-0.417,0.18-0.408,0.419c0.01,0.239,0.196,0.444,0.434,0.42
						c0.238-0.024,0.428-0.278,0.378-0.512c-0.05-0.234-0.313-0.388-0.537-0.302"/>
					<path style="fill:#FAFAFA;" d="M447.397,293.412c-0.197-0.001-0.418,0.18-0.408,0.419c0.009,0.239,0.196,0.444,0.434,0.42
						c0.238-0.024,0.428-0.278,0.378-0.512c-0.05-0.234-0.313-0.388-0.537-0.302"/>
					<path style="fill:#FAFAFA;" d="M429.608,283.932c-0.197-0.001-0.417,0.18-0.408,0.419s0.196,0.444,0.434,0.42
						s0.428-0.278,0.378-0.512c-0.05-0.234-0.313-0.388-0.537-0.302"/>
					<path style="fill:#FAFAFA;" d="M400.526,333.728c-0.197-0.001-0.417,0.18-0.408,0.419c0.01,0.239,0.196,0.444,0.434,0.42
						c0.238-0.024,0.428-0.278,0.378-0.512c-0.05-0.234-0.313-0.388-0.537-0.302"/>
					<path style="fill:#FAFAFA;" d="M451.033,331.351c-0.197-0.001-0.417,0.18-0.408,0.419c0.009,0.239,0.196,0.444,0.434,0.42
						c0.238-0.024,0.428-0.278,0.378-0.512s-0.313-0.388-0.537-0.302"/>
					<path style="fill:#FAFAFA;" d="M440.457,347.385c-0.197-0.001-0.417,0.18-0.408,0.419c0.01,0.239,0.196,0.444,0.434,0.42
						c0.238-0.024,0.428-0.278,0.378-0.512c-0.05-0.234-0.313-0.388-0.537-0.302"/>
					<path style="fill:#FAFAFA;" d="M423.551,315.467c-0.197-0.001-0.417,0.18-0.408,0.419c0.009,0.239,0.196,0.444,0.434,0.42
						c0.238-0.024,0.428-0.278,0.378-0.512c-0.05-0.234-0.313-0.388-0.537-0.302"/>
					<path style="fill:#FAFAFA;" d="M388.264,316.233c-0.197-0.001-0.418,0.18-0.408,0.419c0.009,0.239,0.196,0.444,0.434,0.42
						c0.238-0.024,0.428-0.278,0.378-0.512c-0.05-0.234-0.313-0.388-0.537-0.302"/>
					<path style="fill:#FAFAFA;" d="M394.768,295.922c-0.197-0.001-0.417,0.18-0.408,0.419c0.01,0.239,0.196,0.444,0.434,0.42
						c0.238-0.024,0.428-0.278,0.378-0.512c-0.05-0.234-0.313-0.388-0.537-0.302"/>
					<path style="fill:#FAFAFA;" d="M441.11,266.894c-0.197-0.001-0.417,0.18-0.408,0.419c0.01,0.239,0.196,0.444,0.434,0.42
						c0.238-0.024,0.428-0.278,0.378-0.512c-0.05-0.234-0.313-0.388-0.537-0.302"/>
				</g>
				<g>
					<path style="fill:#455A64;" d="M391.227,196.232c0.033,0.102-1.304,0.349-3.092,1.488c-1.767,1.102-3.955,3.29-4.87,6.382
						c-0.897,3.099-0.235,6.121,0.659,8.002c0.891,1.923,1.884,2.852,1.801,2.92c-0.021,0.021-0.283-0.189-0.691-0.636
						c-0.41-0.445-0.94-1.155-1.441-2.123c-1.008-1.898-1.771-5.048-0.827-8.309c0.964-3.254,3.305-5.495,5.178-6.55
						c0.944-0.544,1.773-0.857,2.358-1.01C390.887,196.239,391.22,196.203,391.227,196.232z"/>
				</g>
				<path style="fill:#FAFAFA;" d="M398.602,208.878c-0.959-0.006-2.03,0.874-1.983,2.037c0.046,1.163,0.953,2.159,2.111,2.043
					c1.158-0.115,2.079-1.352,1.838-2.49c-0.241-1.139-1.523-1.887-2.609-1.469"/>
				<path style="fill:#FAFAFA;" d="M380.954,192.902c-0.959-0.006-2.03,0.874-1.983,2.037c0.046,1.163,0.953,2.159,2.111,2.043
					c1.158-0.115,2.079-1.352,1.838-2.49c-0.241-1.139-1.523-1.887-2.609-1.469"/>
				<path style="fill:#FAFAFA;" d="M397.309,186.227c-0.959-0.006-2.03,0.874-1.983,2.037c0.046,1.163,0.953,2.159,2.111,2.043
					c1.158-0.115,2.079-1.352,1.838-2.49c-0.241-1.139-1.523-1.888-2.609-1.469"/>
				<path style="fill:#FAFAFA;" d="M413.183,190.156c-0.959-0.006-2.029,0.874-1.983,2.037c0.046,1.163,0.953,2.159,2.111,2.043
					c1.158-0.115,2.079-1.352,1.838-2.49c-0.241-1.139-1.523-1.887-2.609-1.469"/>
				<path style="fill:#FAFAFA;" d="M423.283,237.911c-0.197-0.001-0.417,0.18-0.408,0.419s0.196,0.444,0.434,0.42
					c0.238-0.024,0.428-0.278,0.378-0.512c-0.05-0.234-0.313-0.388-0.537-0.302"/>
				<path style="fill:#FAFAFA;" d="M406.014,200.457c-0.197-0.001-0.417,0.18-0.408,0.419c0.009,0.239,0.196,0.444,0.434,0.42
					c0.238-0.024,0.428-0.278,0.378-0.512c-0.05-0.234-0.313-0.388-0.537-0.302"/>
				<path style="fill:#FAFAFA;" d="M389.649,189.075c-0.197-0.001-0.418,0.18-0.408,0.419c0.01,0.239,0.196,0.444,0.434,0.42
					c0.238-0.024,0.428-0.278,0.378-0.512c-0.05-0.234-0.313-0.388-0.537-0.302"/>
				<path style="fill:#FAFAFA;" d="M394.034,219.388c-0.197-0.001-0.417,0.18-0.408,0.419c0.009,0.239,0.196,0.444,0.434,0.42
					c0.238-0.024,0.428-0.278,0.378-0.512c-0.05-0.234-0.313-0.388-0.537-0.302"/>
				<path style="fill:#FAFAFA;" d="M399.889,248.902c-0.197-0.001-0.417,0.18-0.408,0.419c0.009,0.239,0.196,0.444,0.434,0.42
					c0.238-0.024,0.428-0.278,0.378-0.512c-0.05-0.234-0.313-0.388-0.537-0.302"/>
			</g>
			<g>
				<path style="fill:#E8505B;" d="M395.61,135.127c-2.584,2.875-2.811,7.56-2.472,11.41c0.34,3.85,1.182,7.754,0.389,11.537
					c-0.336,1.602-0.959,3.136-1.243,4.747c-0.285,1.612-0.184,3.395,0.796,4.706c0.98,1.31,3.037,1.876,4.315,0.855
					c0.391,1.114,0.797,2.255,1.551,3.163c0.754,0.909,1.943,1.552,3.103,1.331c1.661-0.316,3.009-2.271,4.614-1.737
					c0.991,0.331,1.426,1.453,2.072,2.273c0.93,1.18,2.506,1.814,3.994,1.608c1.488-0.206,2.832-1.246,3.405-2.635
					c0.185-0.448,0.339-0.979,0.778-1.183c0.777-0.362,1.471,0.577,2.136,1.118c0.821,0.667,2.063,0.759,2.973,0.22
					c0.91-0.539,1.427-1.672,1.236-2.712c1.404,1.036,3.082,1.844,4.824,1.746c1.742-0.099,3.499-1.333,3.735-3.062
					c0.259-1.896-1.242-3.53-2.626-4.852c1.164-0.082,2.368-0.426,3.181-1.263s1.095-2.257,0.397-3.192
					c-0.819-1.099-2.514-1.112-3.513-2.05c-1.111-1.044-0.995-2.799-0.915-4.321c0.246-4.639-1.306-9.087-3.206-13.326
					c-1.812-4.043-6.074-8.725-12.385-8.745"/>
				<g>
					<g>
						<g>
							<g>
								<g>
									<path style="fill:#FFBE9D;" d="M420.981,177.994l1.643-35.371l-14.15-10.787l-12.912,6.264c0,0-0.48,16.186-0.071,23.207
										c0.408,7.021,7.484,7.792,7.484,7.792s-0.223,3.872-0.454,7.945c-0.285,5.037,3.522,9.371,8.553,9.74l0,0
										C416.261,187.162,420.74,183.189,420.981,177.994z"/>
								</g>
							</g>
							<g>
								<g>
									<g>
										<path style="fill:#263238;" d="M396.93,149.902c-0.002,0.496,0.4,0.899,0.897,0.901c0.495,0.001,0.899-0.399,0.901-0.895
											c0.002-0.496-0.4-0.9-0.895-0.902C397.336,149.005,396.931,149.406,396.93,149.902z"/>
									</g>
								</g>
								<g>
									<g>
										<g>
											<path style="fill:#263238;" d="M396.063,148.92c0.116,0.117,0.781-0.445,1.749-0.494
												c0.966-0.063,1.692,0.419,1.793,0.289c0.049-0.057-0.07-0.272-0.387-0.491c-0.311-0.218-0.838-0.418-1.441-0.383
												c-0.602,0.035-1.102,0.294-1.386,0.547C396.101,148.642,396.007,148.869,396.063,148.92z"/>
										</g>
									</g>
								</g>
							</g>
							<g>
								<g>
									<g>
										<path style="fill:#263238;" d="M407.342,149.934c-0.001,0.496,0.399,0.899,0.895,0.901
											c0.496,0.001,0.899-0.399,0.901-0.895c0.001-0.496-0.399-0.9-0.896-0.902
											C407.746,149.037,407.343,149.438,407.342,149.934z"/>
									</g>
								</g>
								<g>
									<g>
										<g>
											<path style="fill:#263238;" d="M406.786,148.953c0.116,0.117,0.781-0.445,1.749-0.494
												c0.966-0.063,1.692,0.419,1.793,0.289c0.05-0.057-0.069-0.272-0.387-0.491c-0.311-0.218-0.838-0.418-1.44-0.383
												c-0.602,0.035-1.102,0.294-1.386,0.547C406.824,148.675,406.73,148.902,406.786,148.953z"/>
										</g>
									</g>
								</g>
							</g>
							<g>
								<g>
									<path style="fill:#FAFAFA;" d="M406.464,158.038c-1.205,0.593-3.34,1.445-4.682,1.596c0,0,1.187,1.706,3.204,0.92
										C407.075,159.739,406.464,158.038,406.464,158.038z"/>
								</g>
							</g>
							<g>
								<g>
									<path style="fill:#EB996E;" d="M402.971,169.098c0,0,4.727,0.067,9.31-3.113c0,0-2.124,5.147-9.162,4.835L402.971,169.098z
										"/>
								</g>
							</g>
							<g>
								<g>
									<g>
										<path style="fill:#263238;" d="M403.272,157.113c0.001-0.054-0.604-0.127-1.583-0.203c-0.246-0.013-0.489-0.05-0.54-0.232
											c-0.066-0.189,0.03-0.475,0.14-0.78c0.212-0.635,0.434-1.303,0.669-2.003c0.465-1.425,0.864-2.721,1.134-3.665
											c0.271-0.945,0.412-1.537,0.361-1.554c-0.05-0.017-0.285,0.545-0.623,1.468c-0.338,0.923-0.779,2.205-1.243,3.63
											c-0.224,0.704-0.438,1.375-0.641,2.012c-0.084,0.298-0.234,0.637-0.099,1.01c0.072,0.186,0.254,0.314,0.411,0.349
											c0.158,0.042,0.297,0.038,0.419,0.039C402.66,157.19,403.27,157.166,403.272,157.113z"/>
									</g>
								</g>
							</g>
						</g>
					</g>
				</g>
				<path style="fill:#E8505B;" d="M395.055,137.64c2.665,4.481,5.751,5.551,9.609,7.45c-0.637-1.072-1.274-2.144-1.911-3.217
					c2.149,2.361,5.024,4.051,8.132,4.78c-0.495-0.912-0.991-1.824-1.486-2.735c2.936,4.052,8.559,8.692,13.548,9.076
					c0.403-2.904-0.047-7.807-0.294-10.729c-0.247-2.921-1.204-5.872-3.204-8.015c-3.11-3.331-8.105-4.12-12.654-3.845
					c-4.378,0.264-9.107,1.601-11.561,5.237"/>
				<g>
					<g>
						<g>
							<path style="fill:#FFBE9D;" d="M421.552,155.196c-0.038-1.17-0.038-2.374,0.387-3.465c0.425-1.09,1.367-2.055,2.531-2.173
								c1.34-0.135,2.634,0.982,2.844,2.313c0.209,1.33-0.57,2.713-1.746,3.37c-1.176,0.657-2.664,0.634-3.9,0.097"/>
						</g>
					</g>
					<g>
						<g>
							<g>
								<path style="fill:#EB996E;" d="M423.602,154.18c0.043-0.077,0.38,0.096,0.875-0.053c0.499-0.119,1.012-0.685,1.056-1.489
									c0.03-0.394-0.055-0.759-0.247-0.936c-0.196-0.189-0.513-0.244-0.765-0.231c-0.526,0.045-0.896,0.183-0.927,0.094
									c-0.022-0.059,0.238-0.326,0.867-0.503c0.313-0.069,0.766-0.087,1.178,0.231c0.412,0.34,0.514,0.901,0.479,1.385
									c-0.033,0.501-0.225,0.974-0.528,1.31c-0.299,0.342-0.706,0.513-1.035,0.545
									C423.862,154.599,423.544,154.222,423.602,154.18z"/>
							</g>
						</g>
					</g>
				</g>
				<path style="fill:#263238;" d="M422.869,154.706c-0.884,0.524-1.443,1.578-1.322,2.598c0.121,1.021,0.95,1.934,1.965,2.096
					c1.015,0.162,2.115-0.487,2.412-1.471c0.257-0.852-0.07-1.784-0.584-2.51c-0.092,0.499-0.189,1.013-0.461,1.441
					c-0.272,0.429-0.765,0.758-1.267,0.683c-0.554-0.083-0.943-0.631-1.027-1.184c-0.084-0.553,0.067-1.113,0.218-1.652"/>
				<g>
					<path style="fill:#E8505B;" d="M431.354,154.286c0,0,0.077-0.082,0.278-0.134c0.196-0.045,0.531-0.031,0.851,0.209
						c0.333,0.221,0.536,0.77,0.347,1.308c-0.159,0.547-0.724,1.021-1.42,1.128c-1.361,0.268-3.248-0.695-3.663-2.565
						c-0.208-0.911-0.044-1.887,0.177-2.838c0.106-0.478,0.244-0.964,0.326-1.45c0.067-0.486,0.063-1.001,0.052-1.516
						c-0.084-2.065-0.303-4.043-0.688-5.788c-0.19-0.862-0.644-1.608-1.037-2.293c-0.413-0.68-0.856-1.278-1.295-1.792
						c-0.88-1.032-1.736-1.732-2.344-2.183c-0.306-0.224-0.549-0.392-0.718-0.5c-0.167-0.111-0.253-0.172-0.249-0.178
						c0,0,0.383,0.181,1.014,0.612c0.627,0.433,1.505,1.122,2.409,2.153c0.451,0.514,0.907,1.113,1.331,1.798
						c0.404,0.692,0.868,1.434,1.076,2.338c0.401,1.769,0.625,3.743,0.71,5.828c0.01,0.522,0.016,1.038-0.056,1.555
						c-0.087,0.51-0.224,0.986-0.331,1.463c-0.222,0.944-0.38,1.888-0.188,2.75c0.374,1.761,2.164,2.699,3.451,2.461
						c0.658-0.094,1.175-0.518,1.335-1.02c0.182-0.496,0.014-0.991-0.287-1.207c-0.29-0.233-0.604-0.262-0.793-0.232
						C431.447,154.229,431.36,154.297,431.354,154.286z"/>
				</g>
				<g>
					<path style="fill:#FAFAFA;" d="M410.894,145.211c0,0-1.045-0.109-2.52-0.893c-1.48-0.762-3.263-2.283-4.794-4.298
						c-1.529-2.016-2.675-3.993-3.599-5.357c-0.455-0.687-0.836-1.234-1.107-1.607c-0.27-0.374-0.42-0.58-0.407-0.59
						c0.006-0.005,0.05,0.041,0.131,0.133c0.079,0.092,0.198,0.227,0.341,0.409c0.291,0.359,0.692,0.895,1.164,1.574
						c0.957,1.347,2.124,3.313,3.642,5.313c1.518,1.997,3.258,3.511,4.699,4.296c0.716,0.4,1.333,0.652,1.77,0.794
						C410.65,145.128,410.898,145.193,410.894,145.211z"/>
				</g>
				<g>
					<path style="fill:#E8505B;" d="M392.352,168.215c0,0-0.418-0.188-0.92-0.816c-0.489-0.607-1.067-1.731-0.902-3.183
						c0.072-0.722,0.422-1.462,0.905-2.143c0.475-0.69,1.078-1.352,1.523-2.159c0.453-0.801,0.617-1.786,0.501-2.782
						c-0.104-1-0.424-2.005-0.761-3.027c-0.688-2.048-1.194-4.067-1.315-5.95c-0.115-1.885,0.229-3.586,0.727-4.913
						c0.498-1.333,1.062-2.338,1.464-3.02c0.199-0.342,0.372-0.597,0.483-0.773c0.114-0.175,0.176-0.265,0.182-0.261
						s-0.045,0.101-0.146,0.283c-0.133,0.235-0.28,0.495-0.449,0.792c-0.379,0.691-0.92,1.704-1.395,3.029
						c-0.475,1.322-0.797,2.995-0.674,4.852c0.129,1.856,0.636,3.857,1.321,5.897c0.337,1.023,0.662,2.042,0.766,3.071
						c0.117,1.024-0.058,2.064-0.536,2.895c-0.466,0.832-1.078,1.491-1.55,2.166c-0.481,0.668-0.821,1.369-0.9,2.063
						c-0.179,1.397,0.359,2.505,0.82,3.115C391.968,167.98,392.374,168.19,392.352,168.215z"/>
				</g>
				<g>
					<path style="fill:#E8505B;" d="M424.947,149.138c0.005,0.017-0.265,0.101-0.731,0.303c-0.465,0.202-1.125,0.538-1.842,1.09
						c-0.359,0.275-0.726,0.61-1.083,1.003c-0.364,0.384-0.666,0.878-1.128,1.3c-0.448,0.439-1.176,0.65-1.841,0.489
						c-0.67-0.137-1.284-0.49-1.856-0.891c-2.315-1.596-3.946-3.612-4.883-5.178c-0.475-0.784-0.799-1.452-1-1.922
						c-0.105-0.233-0.17-0.421-0.219-0.547c-0.047-0.126-0.068-0.194-0.061-0.196c0.016-0.007,0.132,0.251,0.354,0.709
						c0.222,0.458,0.565,1.111,1.051,1.878c0.961,1.534,2.59,3.508,4.876,5.085c0.562,0.395,1.156,0.733,1.778,0.863
						c0.621,0.147,1.248-0.03,1.674-0.432c0.437-0.389,0.75-0.883,1.128-1.273c0.37-0.396,0.75-0.731,1.121-1.003
						c0.742-0.547,1.421-0.867,1.9-1.047C424.666,149.185,424.947,149.138,424.947,149.138z"/>
				</g>
				<g>
					<path style="fill:#FAFAFA;" d="M424.284,149.856c-0.027,0.009-0.111-0.336-0.387-0.904c-0.269-0.57-0.747-1.358-1.505-2.195
						c-0.759-0.837-1.786-1.713-2.974-2.627c-1.187-0.913-2.507-1.92-3.76-3.126c-2.526-2.397-4.371-4.984-5.512-6.948
						c-0.579-0.98-0.979-1.81-1.255-2.383c-0.107-0.243-0.204-0.464-0.294-0.67c-0.065-0.154-0.096-0.236-0.089-0.24
						c0.007-0.003,0.05,0.074,0.127,0.222c0.101,0.201,0.21,0.416,0.329,0.652c0.297,0.56,0.716,1.377,1.308,2.343
						c1.169,1.937,3.02,4.492,5.529,6.873c1.245,1.198,2.55,2.202,3.735,3.126c1.184,0.924,2.211,1.82,2.965,2.68
						c0.754,0.86,1.22,1.673,1.469,2.259C424.227,149.504,424.284,149.856,424.284,149.856z"/>
				</g>
				<g>
					<path style="fill:#FAFAFA;" d="M427.431,171.63c0,0-0.247-0.017-0.613-0.253c-0.359-0.237-0.792-0.744-0.996-1.496
						c-0.235-0.746-0.142-1.711,0.196-2.661c0.319-0.962,0.85-1.936,1.134-3.046c0.612-2.223,0.379-4.363-0.026-5.802
						c-0.201-0.726-0.434-1.292-0.604-1.678c-0.178-0.383-0.281-0.593-0.267-0.602c0,0,0.563,0.775,1.013,2.239
						c0.447,1.447,0.71,3.628,0.086,5.897c-0.293,1.138-0.833,2.117-1.153,3.054c-0.34,0.932-0.442,1.84-0.235,2.561
						c0.178,0.726,0.571,1.221,0.901,1.468C427.202,171.557,427.44,171.607,427.431,171.63z"/>
				</g>
			</g>
			<g>
				<g>
					<g>
						<g>
							
								<rect x="224.996" y="137.676" transform="matrix(0.0411 -0.9992 0.9992 0.0411 58.6246 504.6996)" style="fill:#FAFAFA;" width="134.521" height="168.263"/>
							<g>
								<path style="fill:#263238;" d="M379.081,158.061c0,0-0.276-0.002-0.804-0.02c-0.535-0.019-1.318-0.047-2.348-0.083
									c-2.073-0.079-5.133-0.196-9.115-0.347c-7.969-0.313-19.622-0.772-34.399-1.353c-29.529-1.186-71.531-2.874-121.464-4.88
									l0.242-0.223c-1.637,40.002-3.515,85.865-5.501,134.394l-0.001,0.014l-0.249-0.271c62.242,2.577,120.087,4.971,168.118,6.96
									l-0.225,0.207c1.713-40.506,3.133-74.08,4.124-97.536c0.507-11.738,0.905-20.942,1.176-27.221
									c0.14-3.136,0.247-5.54,0.32-7.169C379.031,158.909,379.081,158.061,379.081,158.061s-0.018,0.818-0.076,2.427
									c-0.061,1.62-0.151,4.011-0.269,7.13c-0.245,6.269-0.604,15.459-1.062,27.177c-0.939,23.492-2.284,57.116-3.906,97.682
									l-0.009,0.216l-0.217-0.009c-48.033-1.963-105.879-4.328-168.122-6.872l-0.26-0.011l0.011-0.26l0.001-0.014
									c2.006-48.529,3.902-94.391,5.556-134.392l0.01-0.233l0.233,0.01c49.991,2.104,92.042,3.875,121.605,5.119
									c14.752,0.633,26.386,1.133,34.341,1.475c3.961,0.175,7.004,0.31,9.067,0.401c1.018,0.048,1.793,0.084,2.322,0.109
									C378.824,158.041,379.081,158.061,379.081,158.061z"/>
							</g>
						</g>
					</g>
					<g>
						
							<rect x="233.355" y="143.582" transform="matrix(0.0411 -0.9992 0.9992 0.0411 58.5242 504.5859)" style="fill:#E8505B;" width="117.584" height="156.441"/>
						
							<rect x="233.355" y="143.582" transform="matrix(0.0411 -0.9992 0.9992 0.0411 58.5242 504.5859)" style="opacity:0.7;fill:#FAFAFA;" width="117.584" height="156.441"/>
					</g>
					<polygon style="fill:#E8505B;" points="211.576,277.33 269.174,206.548 301.114,253.629 325.056,230.147 367.885,283.76 					
						"/>
					<g>
						<g>
							
								<ellipse transform="matrix(0.0719 -0.9974 0.9974 0.0719 84.9027 489.3943)" style="fill:#E8505B;" cx="305.41" cy="199.078" rx="12.318" ry="12.318"/>
						</g>
					</g>
				</g>
				<g>
					<g>
						<path style="fill:#FFBE9D;" d="M345.76,214.617c-0.647-2.133-8.725-6.536-7.503-7.723c1.592-1.547,8.225,4.976,8.826,5.486
							c0.584,0.495,1.336-0.361,0.769-0.791c-0.814-0.619-9.21-7.333-7.66-8.868c0.859-0.851,2.211,0.88,2.211,0.88
							s7.407,6.874,8.115,6.124c0.719-0.761-3.499-4.946-5.017-6.256c-1.501-1.293-1.514-2.548-0.407-2.752
							c0.755-0.139,5.499,3.757,6.971,5.087c1.473,1.329,5.449,5.051,4.936,1.587c-0.008-0.055-0.009-0.105-0.016-0.16
							c-0.597-3.397,0.068-6.213,0.814-6.896c0.728-0.667,1.865-0.041,1.921,0.951c0.021,0.159,0.022,0.325-0.027,0.5
							c-0.02,0.073-0.029,0.175-0.045,0.257c-0.09,0.986,0.064,2.419,0.225,3.527c0.152,1.049,0.475,2.067,0.969,3.004
							c0.571,1.083,1.105,1.995,1.574,2.749c5.403,3,20.945,10.918,36.53,12.16c2.814,0.225,19.388-26.776,19.388-26.776
							l15.912,13.28c-1.901,3.233-6.746,13.073-16.305,26.061c-15.595,21.192-64.347-14.124-64.347-14.124v0l-0.457-0.226
							c-3.892-2.004-8.521-4.491-10.774-6.083c-4.192-2.963-3.94-3.351-3.523-3.792C339.961,210.641,346.406,216.751,345.76,214.617
							z"/>
					</g>
					<path style="fill:#263238;" d="M427.975,177.093c0,0,17.433,4.643,14.86,17.092c-1.266,6.123-7.801,18.894-7.801,18.894
						l-18.558-14.893L427.975,177.093z"/>
					<g>
						<path style="fill:#455A64;" d="M423.028,188.354c0.128,0.064-1.066,2.654-2.832,5.688c-1.759,3.039-3.383,5.378-3.501,5.303
							c-0.124-0.078,1.298-2.536,3.051-5.564C421.504,190.758,422.899,188.288,423.028,188.354z"/>
					</g>
					<path style="fill:#FAFAFA;" d="M432.405,201.672c-0.959-0.006-2.029,0.874-1.983,2.037c0.046,1.163,0.953,2.159,2.111,2.043
						c1.158-0.115,2.079-1.352,1.838-2.49c-0.241-1.139-1.523-1.888-2.609-1.469"/>
					<path style="fill:#FAFAFA;" d="M436.961,184.306c-0.959-0.006-2.03,0.874-1.983,2.037c0.046,1.163,0.953,2.159,2.111,2.043
						c1.158-0.115,2.079-1.352,1.838-2.49c-0.241-1.139-1.523-1.887-2.609-1.469"/>
					<path style="fill:#FAFAFA;" d="M428.867,192.493c-0.197-0.001-0.417,0.18-0.408,0.419c0.01,0.239,0.196,0.444,0.434,0.42
						c0.238-0.024,0.428-0.278,0.378-0.512c-0.05-0.234-0.313-0.388-0.537-0.302"/>
					<path style="fill:#FAFAFA;" d="M426.096,180.841c-0.197-0.001-0.418,0.18-0.408,0.419c0.009,0.239,0.196,0.444,0.434,0.42
						c0.238-0.024,0.428-0.278,0.378-0.512c-0.05-0.234-0.313-0.388-0.537-0.302"/>
				</g>
			</g>
		</g>
		<path style="fill:#E8505B;" d="M87.344,235.225l18.121,151.73c0.322,2.696,2.605,4.729,5.32,4.737l237.21,0.723
			c2.805,0.009,5.145-2.141,5.373-4.936l12.405-151.637c0.255-3.124-2.206-5.803-5.34-5.813l-267.737-0.816
			C89.47,229.203,86.961,232.02,87.344,235.225z"/>
		<path style="opacity:0.3;" d="M87.344,235.225l18.121,151.73c0.322,2.696,2.605,4.729,5.32,4.737l237.21,0.723
			c2.805,0.009,5.145-2.141,5.373-4.936l12.405-151.637c0.255-3.124-2.206-5.803-5.34-5.813l-267.737-0.816
			C89.47,229.203,86.961,232.02,87.344,235.225z"/>
	</g>
</g>
</svg>
